# AST/ASF file generated using VICON BodyLanguage
# -----------------------------------------------
:version 1.10
:name VICON
:units
  mass 1.0
  length 0.45
  angle deg
:documentation
   .ast/.asf automatically generated from VICON data using
   VICON BodyBuilder and BodyLanguage model FoxedUp or BRILLIANT.MOD
:root
   order TX TY TZ RX RY RZ
   axis XYZ
   position 0 0 0  
   orientation 0 0 0 
:bonedata
  begin
     id 1 
     name lhipjoint
     direction 0.78388 -0.462562 0.414208 
     length 3.01181 
     axis 0 0 0  XYZ
  end
  begin
     id 2 
     name lfemur
     direction 0.34202 -0.939693 0  
     length 6.04673  
     axis 0 0 20  XYZ
    dof rx ry rz
    limits (-160.0 20.0)
           (-70.0 70.0)
           (-60.0 70.0)
  end
  begin
     id 3 
     name ltibia
     direction 0.34202 -0.939693 0   
     length 7.211   
     axis 0 0 20   XYZ
    dof rx
    limits (-10.0 170.0)
  end
  begin
     id 4 
     name lfoot
     direction 0.121887 -0.334882 0.934344   
     length 2.13567   
     axis -90 7.62852e-016 20   XYZ
    dof rx rz
    limits (-45.0 90.0)
           (-70.0 20.0)
  end
  begin
     id 5 
     name ltoes
     direction 1.53555e-011 -4.2179e-011 1   
     length 1.05957   
     axis -90 7.62852e-016 20   XYZ
    dof rx
    limits (-90.0 20.0)
  end
  begin
     id 6 
     name rhipjoint
     direction -0.769387 -0.475875 0.426129   
     length 2.92756  
     axis 0 0 0  XYZ 
  end
  begin
     id 7 
     name rfemur
     direction -0.34202 -0.939693 0   
     length 6.35468   
     axis 0 0 -20   XYZ
    dof rx ry rz
    limits (-160.0 20.0)
           (-70.0 70.0)
           (-70.0 60.0)
  end
  begin
     id 8 
     name rtibia
     direction -0.34202 -0.939693 0   
     length 7.37886   
     axis 0 0 -20   XYZ
    dof rx
    limits (-10.0 170.0)
 end
 begin
     id 9 
     name rfoot
     direction -0.101763 -0.279592 0.954711   
     length 2.21478  
     axis -90 -7.62852e-016 -20   XYZ
    dof rx rz
    limits (-45.0 90.0)
           (-20.0 70.0)
  end
  begin
     id 10 
     name rtoes
     direction -1.53494e-011 -4.21851e-011 1   
     length 1.10506   
     axis -90 -7.62852e-016 -20   XYZ
    dof rx
    limits (-90.0 20.0)
  end
  begin
     id 11 
     name lowerback
     direction 0.00747405 0.999267 0.0375481   
     length 2.13259   
     axis 0 0 0   XYZ
    dof rx ry rz
    limits (-20.0 45.0)
           (-30.0 30.0)
           (-30.0 30.0)
  end
  begin
     id 12 
     name upperback
     direction 0.00661626 0.996177 0.0871029   
     length 2.10528   
     axis 0 0 0   XYZ
    dof rx ry rz
    limits (-20.0 45.0)
           (-30.0 30.0)
           (-30.0 30.0)
  end
  begin
     id 13 
     name thorax
     direction 0.00320659 0.997679 0.0680167   
     length 2.11338   
     axis 0 0 0   XYZ
    dof rx ry rz
    limits (-20.0 45.0)
           (-30.0 30.0)
           (-30.0 30.0)
  end
  begin
     id 14 
     name lowerneck
     direction 0.0374841 0.973033 0.227602   
     length 1.42765   
     axis 0 0 0   XYZ
    dof rx ry rz
    limits (-20.0 45.0)
           (-30.0 30.0)
           (-30.0 30.0)
  end
  begin
     id 15 
     name upperneck
     direction 0.00481585 0.989155 -0.146795   
     length 1.47593   
     axis 0 0 0   XYZ
    dof rx ry rz
    limits (-20.0 45.0)
           (-30.0 30.0)
           (-30.0 30.0)
  end
  begin
     id 16
     name head
     direction -0.00292522 0.997206 -0.0746423  
     length 1.48116  
     axis 0 0 0   XYZ
    dof rx ry rz
    limits (-20.0 45.0)
           (-30.0 30.0)
           (-30.0 30.0)
  end
  begin
     id 17 
     name lclavicle
     direction 0.951444 0.305606 0.0368784  
     length 3.01855  
     axis 0 0 0   XYZ
    dof ry rz
    limits (-20.0 10.0)
           (0.0 20.0)
  end
  begin
     id 18 
     name lhumerus
     direction 1 -4.48977e-011 2.61664e-027   
     length 5.52731   
     axis 180 -30 -90   XYZ
    dof rx ry rz
    limits (-60.0 90.0)
           (-90.0 90.0)
           (-90.0 90.0)
  end
  begin
     id 19
     name lradius
     direction 1 -4.48944e-011 8.22157e-027   
     length 3.11059   
     axis 180 -30 -90   XYZ
    dof rx
    limits (-10.0 170.0)
  end
  begin
     id 20
     name lwrist
     direction 1 -4.48976e-011 1.5779e-026   
     length 1.5553   
     axis -1.15221e-014 90 90   XYZ
    dof ry
    limits (-180.0 0.0)
 end
  begin
     id 21 
     name lhand
     direction 1 -4.49025e-011 3.1558e-026   
     length 0.419626   
     axis -2.01367e-014 90 90   XYZ
    dof rx rz
    limits (-90.0 90.0)
           (-45.0 45.0)
  end
  begin
     id 22 
     name lfingers
     direction 1 -4.4904e-011 6.31161e-026   
     length 0.338313   
     axis -4.02734e-014 90 90   XYZ
    dof rx
    limits (0.0 90.0)
  end
  begin
     id 23
     name lthumb
     direction 0.707107 -6.35004e-011 0.707107   
     length 0.485752   
     axis -90 45 2.85299e-015   XYZ
    dof rx rz
    limits (-45.0 45.0)
           (-45.0 45.0)
  end
  begin
     id 24 
     name rclavicle
     direction -0.968876 0.223791 0.105816   
     length 3.04177  
     axis 0 0 0   XYZ 
    dof ry rz
    limits (-10.0 20.0)
           (-20.0 0.0)
  end
  begin
     id 25 
     name rhumerus
     direction -1 -4.48962e-011 -1.01384e-027  
     length 5.25396   
     axis 180 30 90   XYZ
    dof rx ry rz
    limits (-90.0 60.0)
           (-90.0 90.0)
           (-90.0 90.0)
  end
  begin
     id 26 
     name rradius
     direction -1 -4.48955e-011 8.88542e-027   
     length 3.10567   
     axis 180 30 90   XYZ
    dof rx
    limits (-10.0 170.0)
  end
  begin
     id 27 
     name rwrist
     direction -1 -4.48994e-011 1.5779e-026   
     length 1.55283   
     axis -1.15221e-014 -90 -90   XYZ
    dof ry
    limits (-180.0 0.0)
  end
  begin
     id 28
     name rhand
     direction -1 -4.48891e-011 3.1558e-026   
     length 0.498676   
     axis -2.01367e-014 -90 -90   XYZ
    dof rx rz
    limits (-90.0 90.0)
           (-45.0 45.0)
  end
  begin
     id 29
     name rfingers
     direction -1 -4.48972e-011 6.31161e-026   
     length 0.402045   
     axis -4.02734e-014 -90 -90   XYZ
    dof rx
    limits (0.0 90.0)
  end
  begin
     id 30
     name rthumb
     direction -0.707107 -6.34849e-011 0.707107   
     length 0.577259   
     axis -90 -45 -2.85299e-015   XYZ
    dof rx rz
    limits (-45.0 45.0)
           (-45.0 45.0)
  end
:hierarchy
  begin
    root lhipjoint rhipjoint lowerback
    lhipjoint lfemur
    lfemur ltibia
    ltibia lfoot
    lfoot ltoes
    rhipjoint rfemur
    rfemur rtibia
    rtibia rfoot
    rfoot rtoes
    lowerback upperback
    upperback thorax
    thorax lowerneck lclavicle rclavicle
    lowerneck upperneck
    upperneck head
    lclavicle lhumerus
    lhumerus lradius
    lradius lwrist
    lwrist lhand lthumb
    lhand lfingers
    rclavicle rhumerus
    rhumerus rradius
    rradius rwrist
    rwrist rhand rthumb
    rhand rfingers
  end

#!OML:ASF H:\Pregnant\Project 1\Capture day 1\Session 1\femalepreg.ASF
:FULLY-SPECIFIED
:DEGREES
191
root 10.3061 1.52803 24.3378 -22.4608 -38.6973 -153.26
lowerback 84.0425 -28.7529 19.8027
upperback 1.18999 -19.1511 2.4451
thorax -16.6726 -11.2941 6.95608
lowerneck -23.8656 3.23061 -0.384827
upperneck 21.8174 5.58868 -3.47782
head 11.1164 1.98542 -0.306104
rclavicle -1.90833e-014 -1.42131e-013
rhumerus -8.013 10.3107 -72.6533
rradius 33.1191
rwrist -35.7309
rhand 37.0049 -16.4555
rfingers 7.12502
rthumb 59.8695 -30.3721
lclavicle -1.90833e-014 -1.42131e-013
lhumerus -8.10531 -26.8026 81.8767
lradius 40.6253
lwrist 68.1547
lhand 38.3306 17.7213
lfingers 7.12502
lthumb 60.9974 30.41
rfemur 46.4817 -22.0589 -86.3244
rtibia 115.953
rfoot 6.47201 63.7571
rtoes 20.1781
lfemur -1.47442 -45.9927 -81.5596
ltibia 127.22
lfoot 31.0079 8.9982
ltoes 21.6804
192
root 10.3369 1.51957 24.3558 -22.4262 -39.1941 -152.748
lowerback 84.0831 -28.2462 19.3311
upperback 1.19693 -18.9433 2.41652
thorax -16.7444 -11.1577 6.94234
lowerneck -23.8042 3.21298 -0.469756
upperneck 21.8115 5.59201 -3.47532
head 11.1005 1.98039 -0.29181
rclavicle -3.18055e-014 -4.09993e-014
rhumerus -7.99983 10.1449 -72.623
rradius 33.3291
rwrist -36.1366
rhand 39.3806 -16.9985
rfingers 7.12502
rthumb 61.8797 -28.6414
lclavicle -3.18055e-014 -4.09993e-014
lhumerus -8.05998 -27.2657 81.9348
lradius 40.6864
lwrist 68.5175
lhand 39.6597 18.6995
lfingers 7.12502
lthumb 62.1125 30.0525
rfemur 46.1125 -22.6931 -87.6148
rtibia 116.4
rfoot 4.66311 63.9496
rtoes 20.0385
lfemur -3.3685 -45.6708 -80.1659
ltibia 127.051
lfoot 30.9665 8.77394
ltoes 20.9022
193
root 10.3662 1.51225 24.373 -22.3275 -39.7484 -152.229
lowerback 84.0757 -27.661 18.8304
upperback 1.21814 -18.6809 2.40608
thorax -16.8061 -10.9991 6.93034
lowerneck -23.7361 3.19674 -0.56763
upperneck 21.8122 5.60295 -3.47662
head 11.0858 1.9769 -0.275656
rclavicle 7.39479e-014 -1.9963e-013
rhumerus -8.02994 10.0352 -72.5644
rradius 33.6488
rwrist -36.7389
rhand 41.4669 -17.5886
rfingers 7.12502
rthumb 63.5994 -26.9374
lclavicle 7.39479e-014 -1.9963e-013
lhumerus -8.02013 -27.6813 82.0009
lradius 40.7826
lwrist 68.9985
lhand 40.8276 19.6703
lfingers 7.12502
lthumb 63.0776 29.7545
rfemur 45.7272 -23.4663 -88.7625
rtibia 116.846
rfoot 3.10013 64.071
rtoes 19.917
lfemur -5.30166 -45.3082 -78.7058
ltibia 126.88
lfoot 30.9226 8.50161
ltoes 20.1632
194
root 10.3936 1.50598 24.3888 -22.1149 -40.3877 -151.723
lowerback 83.995 -26.9729 18.3007
upperback 1.26274 -18.3411 2.4159
thorax -16.8514 -10.8094 6.91041
lowerneck -23.6688 3.18453 -0.67008
upperneck 21.8188 5.62272 -3.48317
head 11.0737 1.97596 -0.259222
rclavicle 2.14687e-014 -8.99501e-014
rhumerus -8.08663 9.96872 -72.4801
rradius 34.0588
rwrist -37.5177
rhand 43.2516 -18.1724
rfingers 7.12502
rthumb 65.0296 -25.2999
lclavicle 2.14687e-014 -8.99501e-014
lhumerus -7.97439 -28.0362 82.0646
lradius 40.9161
lwrist 69.5235
lhand 41.8376 20.5277
lfingers 7.12502
lthumb 63.8999 29.4359
rfemur 45.3083 -24.4432 -89.6917
rtibia 117.295
rfoot 1.83529 64.0953
rtoes 19.8186
lfemur -7.30878 -44.9195 -77.1348
ltibia 126.715
lfoot 30.8544 8.18419
ltoes 19.5042
195
root 10.4189 1.5008 24.4026 -21.7339 -41.1395 -151.249
lowerback 83.8141 -26.1559 17.7386
upperback 1.33803 -17.9015 2.4529
thorax -16.875 -10.5799 6.88007
lowerneck -23.6076 3.18092 -0.77019
upperneck 21.8304 5.65673 -3.50021
head 11.0652 1.97986 -0.244594
rclavicle -4.21423e-014 5.42185e-014
rhumerus -8.14943 9.93719 -72.3703
rradius 34.536
rwrist -38.4362
rhand 44.7431 -18.7088
rfingers 7.12502
rthumb 66.1904 -23.7702
lclavicle -4.21423e-014 5.42185e-014
lhumerus -7.9157 -28.3062 82.1214
lradius 41.0878
lwrist 70.0166
lhand 42.7082 21.1846
lfingers 7.12502
lthumb 64.5986 29.016
rfemur 44.8325 -25.6912 -90.3158
rtibia 117.75
rfoot 0.929276 63.9961
rtoes 19.7396
lfemur -9.42332 -44.5188 -75.4135
ltibia 126.569
lfoot 30.735 7.82727
ltoes 18.9511
196
root 10.4418 1.49691 24.4144 -21.1383 -42.0246 -150.835
lowerback 83.514 -25.1905 17.1387
upperback 1.44366 -17.344 2.52981
thorax -16.878 -10.3038 6.84814
lowerneck -23.5484 3.19002 -0.868988
upperneck 21.8468 5.71303 -3.53539
head 11.06 1.99105 -0.23316
rclavicle 6.44062e-014 -5.12864e-014
rhumerus -8.20321 9.94135 -72.2281
rradius 35.0556
rwrist -39.4501
rhand 45.9655 -19.1735
rfingers 7.12502
rthumb 67.115 -22.3818
lclavicle 6.44062e-014 -5.12864e-014
lhumerus -7.84782 -28.4646 82.1804
lradius 41.2969
lwrist 70.4174
lhand 43.4633 21.5999
lfingers 7.12502
lthumb 65.1963 28.4465
rfemur 44.2672 -27.2635 -90.5426
rtibia 118.211
rfoot 0.447782 63.7496
rtoes 19.6725
lfemur -11.6626 -44.1142 -73.5211
ltibia 126.453
lfoot 30.5363 7.4361
ltoes 18.5056
197
root 10.4617 1.4944 24.4237 -20.228 -43.0779 -150.533
lowerback 83.0351 -24.0564 16.5166
upperback 1.59097 -16.6387 2.65257
thorax -16.8549 -9.96838 6.80103
lowerneck -23.4882 3.20218 -0.970169
upperneck 21.8659 5.77696 -3.58039
head 11.0561 2.00394 -0.223714
rclavicle 5.32743e-014 -1.74384e-013
rhumerus -8.23154 9.96318 -72.0562
rradius 35.589
rwrist -40.507
rhand 46.948 -19.5628
rfingers 7.12502
rthumb 67.8384 -21.1676
lclavicle 5.32743e-014 -1.74384e-013
lhumerus -7.76582 -28.5052 82.2403
lradius 41.5403
lwrist 70.6894
lhand 44.1256 21.7866
lfingers 7.12502
lthumb 65.7139 27.7283
rfemur 43.5504 -29.2644 -90.2126
rtibia 118.68
rfoot 0.493036 63.3114
rtoes 19.6065
lfemur -14.0826 -43.7333 -71.3965
ltibia 126.394
lfoot 30.2217 7.01277
ltoes 18.1386
198
root 10.4782 1.49356 24.4306 -18.8948 -44.3207 -150.424
lowerback 82.3044 -22.7549 15.9047
upperback 1.79801 -15.7663 2.82183
thorax -16.7929 -9.56566 6.71592
lowerneck -23.4255 3.19954 -1.0804
upperneck 21.8848 5.82002 -3.61422
head 11.0506 2.00829 -0.212159
rclavicle -4.21423e-014 5.77221e-014
rhumerus -8.21922 9.98247 -71.8628
rradius 36.1091
rwrist -41.5595
rhand 47.7148 -19.8888
rfingers 7.12502
rthumb 68.3894 -20.1662
lclavicle -4.21423e-014 5.77221e-014
lhumerus -7.65875 -28.444 82.2915
lradius 41.812
lwrist 70.8227
lhand 44.7049 21.7974
lfingers 7.12502
lthumb 66.1611 26.9143
rfemur 42.581 -31.7852 -89.1243
rtibia 119.155
rfoot 1.17341 62.6283
rtoes 19.5384
lfemur -16.725 -43.4065 -68.9937
ltibia 126.426
lfoot 29.754 6.56421
ltoes 17.8139
199
root 10.4901 1.49473 24.4348 -16.9822 -45.7687 -150.631
lowerback 80.8937 -21.1871 15.3092
upperback 2.52098 -14.7006 3.04383
thorax -16.7335 -9.07592 6.57928
lowerneck -23.365 3.15393 -1.2092
upperneck 21.9016 5.79575 -3.59796
head 11.0411 1.98806 -0.190175
rclavicle 1.12115e-013 -1.50555e-013
rhumerus -8.15144 9.9675 -71.6667
rradius 36.5873
rwrist -42.5606
rhand 48.2853 -20.1657
rfingers 7.12502
rthumb 68.7912 -19.4099
lclavicle 1.12115e-013 -1.50555e-013
lhumerus -7.5041 -28.3242 82.3093
lradius 42.1003
lwrist 70.8273
lhand 45.1995 21.6996
lfingers 7.12502
lthumb 66.5386 26.0869
rfemur 41.1667 -34.9368 -86.9579
rtibia 119.631
rfoot 2.61014 61.6126
rtoes 19.4677
lfemur -19.6534 -43.1776 -66.2398
ltibia 126.595
lfoot 29.0964 6.10181
ltoes 17.4962
200
root 10.4963 1.49826 24.4358 -14.309 -47.41 -151.325
lowerback 79.3725 -19.6383 14.9029
upperback 2.91218 -13.4524 3.30118
thorax -16.5261 -8.51978 6.29222
lowerneck -23.3097 3.03855 -1.37691
upperneck 21.9172 5.66311 -3.49082
head 11.0261 1.92875 -0.146102
rclavicle 3.49861e-014 -5.25785e-014
rhumerus -8.01774 9.91334 -71.4801
rradius 37
rwrist -43.4718
rhand 48.6753 -20.3982
rfingers 7.12502
rthumb 69.0615 -18.9129
lclavicle 3.49861e-014 -5.25785e-014
lhumerus -7.28726 -28.1845 82.2822
lradius 42.3868
lwrist 70.7171
lhand 45.5952 21.5442
lfingers 7.12502
lthumb 66.8377 25.33
rfemur 38.939 -38.8 -83.2174
rtibia 120.093
rfoot 4.90824 60.1335
rtoes 19.3966
lfemur -22.9319 -43.0883 -63.0568
ltibia 126.955
lfoot 28.2229 5.64636
ltoes 17.1678
